<?xml version="1.0" encoding="UTF-8"?>
<svg id="uuid-d7663350-f6f9-4108-8b4f-e36ce01696fd" data-name="Layer 2" xmlns="http://www.w3.org/2000/svg" width="111.5" height="115.7" viewBox="0 0 111.5 115.7">
  <defs>
    <style>
      .uuid-80cd297d-f113-4a6b-b1b8-42668ae95d44 {
        fill: #fff;
      }

      .uuid-7b858f1d-78b1-4b07-9979-2c3f2dc46a78 {
        fill: #333;
      }
    </style>
  </defs>
  <g id="uuid-ec55d9ce-3c73-4c81-a316-a010850a72f7" data-name="iniciar sesion">
    <g>
      <g>
        <g>
          <path class="uuid-7b858f1d-78b1-4b07-9979-2c3f2dc46a78" d="M69.2,95.4l-1.3,5.3h-1.6l-1.9-5h1.1l1.7,4.5h-.1l1.1-4.8h1.1Zm-1,1.4l-.2,.9h-2.1l-.3-.8,2.5-.2Z"/>
          <path class="uuid-7b858f1d-78b1-4b07-9979-2c3f2dc46a78" d="M61,95.5c.6,0,1.1,.2,1.5,.4,.4,.2,.7,.5,.9,.9,.2,.4,.3,.9,.2,1.5,0,.6-.2,1.1-.4,1.5-.2,.4-.6,.7-1,.8s-.9,.2-1.5,.2c-.2,0-.4,0-.6,0s-.4,0-.5-.1v-.9c.2,0,.4,0,.6,.1,.2,0,.3,0,.5,0,.4,0,.7,0,1-.1,.3,0,.5-.3,.6-.5s.2-.6,.3-1c0-.4,0-.7-.1-1-.1-.3-.3-.5-.5-.6-.2-.1-.5-.2-.9-.2-.1,0-.3,0-.4,0-.1,0-.3,0-.4,0l.5-.4v2h-1.1l.2-2.5c.2,0,.4,0,.6,0,.2,0,.4,0,.6,0Z"/>
          <path class="uuid-7b858f1d-78b1-4b07-9979-2c3f2dc46a78" d="M58.4,95.3l-1,5.1-3.4-.6,.2-.9,2.4,.4,.6-3.3-2.4-.5,.2-.9,3.4,.6Zm-1,2l-.2,.9-2.4-.5,.2-.9,2.4,.5Z"/>
          <path class="uuid-7b858f1d-78b1-4b07-9979-2c3f2dc46a78" d="M53.9,94.4l-1.6,5-1-.3-1.1-4.3h.2l-1.2,3.7-1-.3,1.6-5,1,.3,1.1,4.3h-.2l1.2-3.7,1,.3Z"/>
          <path class="uuid-7b858f1d-78b1-4b07-9979-2c3f2dc46a78" d="M46.4,91.5c.4,.2,.7,.4,.9,.6,.2,.2,.4,.5,.5,.8,.1,.3,.1,.6,.1,1,0,.4-.2,.7-.4,1.2-.3,.5-.6,.9-.9,1.2-.4,.3-.8,.4-1.2,.4-.4,0-.9,0-1.4-.3-.2,0-.3-.2-.5-.3-.2,0-.3-.2-.4-.3l.4-.9c.1,.1,.3,.2,.4,.3,.1,0,.3,.2,.4,.2,.3,.2,.6,.2,.9,.2,.3,0,.5,0,.7-.3,.2-.2,.4-.5,.6-.8,.2-.4,.3-.7,.3-1,0-.3,0-.5-.2-.7-.2-.2-.4-.4-.7-.5-.2,0-.3-.1-.5-.2-.2,0-.3,0-.5-.1l.4-.9c.2,0,.3,0,.5,.1s.4,.1,.6,.2Z"/>
          <path class="uuid-7b858f1d-78b1-4b07-9979-2c3f2dc46a78" d="M44.5,90.5l-2.6,4.5-.9-.5,2.6-4.5,.9,.5Z"/>
          <path class="uuid-7b858f1d-78b1-4b07-9979-2c3f2dc46a78" d="M42.7,89.5l-4.3,3.3-1.3-.9,1.7-5.2,.9,.6-1.6,4.6h0l3.9-3.1,.9,.6Zm-1.7,.5l-.7,.6-1.7-1.2,.3-.9,2.1,1.5Z"/>
          <path class="uuid-7b858f1d-78b1-4b07-9979-2c3f2dc46a78" d="M35.5,83.7c0,0,.2,.2,.3,.3s.2,.2,.3,.4c0,.1,.2,.2,.3,.4l-3.6,3.5c-.1,0-.3-.2-.4-.3-.1-.1-.3-.2-.4-.3-.1-.1-.3-.2-.4-.4-.6-.6-.9-1.3-.9-1.9,0-.6,.3-1.3,1-1.9,.4-.4,.9-.7,1.3-.8s.9,0,1.3,.1c.4,.2,.9,.5,1.3,1Zm-.9,.4c-.2-.2-.5-.4-.7-.5s-.5,0-.8,0c-.3,0-.5,.3-.8,.6-.3,.3-.5,.6-.6,.8-.1,.3-.1,.5,0,.8,0,.2,.2,.5,.5,.7,0,0,.1,.1,.2,.2,0,0,.2,.1,.2,.2l2.4-2.3c0,0-.1-.1-.2-.2,0,0-.1-.1-.2-.2Z"/>
          <path class="uuid-7b858f1d-78b1-4b07-9979-2c3f2dc46a78" d="M32.7,80.7l-4.2,3.1-2.1-2.8,.7-.5,1.4,1.9,2.7-2-1.5-2,.7-.5,2.1,2.8Zm-2.2,.8l-.7,.5-1.5-2,.7-.5,1.5,2Z"/>
          <path class="uuid-7b858f1d-78b1-4b07-9979-2c3f2dc46a78" d="M27.9,72.9c.2,.4,.3,.7,.4,1,0,.3,0,.6,0,.9,0,.3-.3,.6-.5,.8-.2,.3-.6,.5-1,.7-.5,.3-1,.4-1.5,.4-.4,0-.8-.1-1.2-.4-.4-.3-.7-.6-.9-1.1,0-.2-.2-.3-.2-.5,0-.2-.1-.3-.2-.5l.8-.4c0,.2,0,.3,.1,.5,0,.2,.1,.3,.2,.5,.2,.3,.3,.6,.6,.7,.2,.2,.5,.2,.7,.2,.3,0,.6-.1,1-.3,.4-.2,.7-.4,.8-.6,.2-.2,.3-.5,.3-.7,0-.3,0-.5-.2-.8,0-.2-.2-.3-.3-.4-.1-.1-.2-.3-.3-.4l.8-.4c.1,.1,.2,.3,.4,.4,.1,.2,.2,.3,.3,.5Z"/>
          <path class="uuid-7b858f1d-78b1-4b07-9979-2c3f2dc46a78" d="M26.2,69c.2,.4,.2,.9,.2,1.3,0,.4-.2,.7-.5,1.1-.3,.3-.7,.6-1.3,.8-.6,.2-1.1,.3-1.5,.2-.4,0-.8-.2-1.1-.5-.3-.3-.5-.6-.7-1.1-.2-.4-.2-.9-.2-1.3s.2-.7,.5-1.1c.3-.3,.7-.6,1.3-.8s1.1-.3,1.5-.2c.4,0,.8,.2,1.1,.5,.3,.3,.5,.6,.7,1.1Zm-.9,.3c0-.2-.2-.4-.4-.6-.2-.1-.4-.2-.7-.2-.3,0-.6,0-1,.2-.4,.1-.7,.3-.9,.5-.2,.2-.3,.4-.4,.6,0,.2,0,.4,0,.7,0,.2,.2,.4,.4,.6,.2,.1,.4,.2,.7,.2,.3,0,.6,0,1-.2,.4-.1,.7-.3,.9-.5,.2-.2,.3-.4,.4-.6,0-.2,0-.4,0-.7Z"/>
          <path class="uuid-7b858f1d-78b1-4b07-9979-2c3f2dc46a78" d="M25,65.7l-5.1,1-.3-1.3,3.1-2.1h0l-3.6-.6-.3-1.3,5.1-1,.2,1-4.1,.8v-.2l3.6,.7,.2,.9-3.1,2.1v-.3l4.1-.8,.2,1Z"/>
          <path class="uuid-7b858f1d-78b1-4b07-9979-2c3f2dc46a78" d="M23.8,57.1c0,.5,0,.9-.2,1.2-.1,.3-.4,.6-.7,.7-.3,.2-.7,.3-1.2,.3l-3,.2v-1.1l3.1-.2c.4,0,.7-.1,.9-.3,.2-.2,.3-.4,.2-.8s-.1-.6-.3-.7c-.2-.2-.5-.2-.9-.2l-3.2,.2v-1.1l3-.2c.5,0,.9,0,1.3,.2,.3,.1,.6,.3,.8,.6,.2,.3,.3,.7,.3,1.2Z"/>
          <path class="uuid-7b858f1d-78b1-4b07-9979-2c3f2dc46a78" d="M23.6,53.8l-5.2-.4v-1.1l4.1-2v.2l-3.8-.3v-1l5.3,.4v1.1l-4.1,2v-.2l3.8,.3v1Z"/>
          <path class="uuid-7b858f1d-78b1-4b07-9979-2c3f2dc46a78" d="M24.3,48.2l-5.1-.9,.2-1.1,5.1,.9-.2,1.1Z"/>
          <path class="uuid-7b858f1d-78b1-4b07-9979-2c3f2dc46a78" d="M25.4,43.5c-.1,.4-.3,.7-.4,1-.2,.3-.4,.5-.7,.7-.3,.2-.6,.2-.9,.3-.4,0-.8,0-1.2-.2-.6-.2-1-.4-1.4-.7-.3-.3-.5-.7-.6-1.1,0-.4,0-.9,0-1.5,0-.2,.1-.4,.2-.5,0-.2,.1-.3,.2-.5l.9,.3c0,.1-.2,.3-.2,.4,0,.1-.1,.3-.2,.5,0,.3-.1,.6,0,.9,0,.3,.2,.5,.4,.7s.5,.3,.9,.4c.4,.1,.8,.1,1,.1,.3,0,.5-.2,.7-.3,.2-.2,.3-.5,.4-.8,0-.2,0-.3,0-.5,0-.2,0-.3,0-.5l.9,.2c0,.2,0,.3,0,.5,0,.2,0,.4-.1,.6Z"/>
          <path class="uuid-7b858f1d-78b1-4b07-9979-2c3f2dc46a78" d="M25.8,41.8l-4.2-3.5,.6-1.5,5.4,.5-.4,1-4.9-.5h0l3.8,3-.4,1Zm-.9-1.6l-.8-.6,.8-1.9h.9l-1,2.5Z"/>
          <path class="uuid-7b858f1d-78b1-4b07-9979-2c3f2dc46a78" d="M29.3,34.6c-.2,.4-.4,.7-.7,.9-.2,.2-.5,.4-.8,.5-.3,0-.6,.1-1,0s-.7-.2-1.1-.4c-.5-.3-.9-.6-1.2-1-.2-.4-.4-.8-.3-1.2,0-.4,.2-.9,.4-1.4,0-.2,.2-.3,.3-.5,.1-.1,.2-.3,.3-.4l.8,.5c-.1,.1-.2,.2-.3,.4,0,.1-.2,.3-.3,.4-.2,.3-.3,.6-.3,.9s0,.5,.2,.7c.2,.2,.4,.4,.8,.6,.4,.2,.7,.3,1,.3,.3,0,.5,0,.7-.2,.2-.1,.4-.4,.6-.7,0-.1,.2-.3,.2-.5,0-.2,.1-.3,.1-.5l.8,.5c0,.2,0,.3-.1,.5,0,.2-.1,.4-.2,.5Z"/>
          <path class="uuid-7b858f1d-78b1-4b07-9979-2c3f2dc46a78" d="M30.4,32.7l-4.3-2.9,.6-.9,4.3,2.9-.6,.9Z"/>
          <path class="uuid-7b858f1d-78b1-4b07-9979-2c3f2dc46a78" d="M28.5,25.7l-.4-1.1,.7-.9,.3,1.3-.6,.7Zm4.7,3.3c-.3,.4-.6,.6-1,.8-.4,.1-.8,.2-1.2,0-.4-.1-.9-.4-1.3-.7-.5-.4-.8-.8-1-1.2s-.2-.8-.2-1.2c0-.4,.3-.8,.6-1.1,.3-.4,.6-.6,1-.8,.4-.1,.8-.2,1.2,0,.4,.1,.9,.4,1.3,.7s.8,.8,1,1.2c.2,.4,.2,.8,.2,1.2,0,.4-.3,.8-.6,1.1Zm-.7-.6c.2-.2,.3-.4,.3-.6,0-.2,0-.4-.2-.7s-.4-.5-.7-.8c-.3-.3-.6-.5-.9-.5-.3,0-.5-.1-.7,0-.2,0-.4,.2-.6,.4-.2,.2-.3,.4-.3,.6,0,.2,0,.4,.2,.7,.1,.2,.4,.5,.7,.8,.3,.3,.6,.5,.9,.6,.3,0,.5,.1,.7,0,.2,0,.4-.2,.6-.4Z"/>
          <path class="uuid-7b858f1d-78b1-4b07-9979-2c3f2dc46a78" d="M35.5,26.4l-3.5-3.9,.8-.7,4.3,1.2h-.1l-2.5-2.7,.8-.7,3.5,3.9-.8,.7-4.3-1.2h.1l2.5,2.7-.8,.7Z"/>
          <path class="uuid-7b858f1d-78b1-4b07-9979-2c3f2dc46a78" d="M42.6,20.8c-.1,0-.2,.1-.4,.2s-.3,.1-.4,.2c-.1,0-.3,.1-.4,.2l-2.6-4.3c.1-.1,.2-.2,.4-.3,.1-.1,.3-.2,.4-.3s.3-.2,.5-.3c.8-.5,1.5-.6,2.1-.5s1.2,.6,1.6,1.4c.3,.5,.5,1,.5,1.5,0,.4-.1,.9-.4,1.2-.3,.4-.7,.7-1.3,1.1Zm-.2-.9c.3-.2,.5-.4,.6-.6,.1-.2,.2-.5,.2-.7,0-.3-.2-.6-.4-1-.2-.4-.4-.6-.7-.8-.2-.2-.5-.2-.7-.2-.3,0-.5,.1-.8,.3,0,0-.1,0-.2,.2s-.2,.1-.2,.2l1.7,2.9c0,0,.2,0,.2-.1,0,0,.2,0,.2-.1Z"/>
          <path class="uuid-7b858f1d-78b1-4b07-9979-2c3f2dc46a78" d="M46.2,18.7l-2.3-4.7,1-.5,2.3,4.7-1,.5Z"/>
          <path class="uuid-7b858f1d-78b1-4b07-9979-2c3f2dc46a78" d="M50.9,16.8c-.6,.2-1.1,.3-1.6,.3-.5,0-.9-.2-1.2-.5-.3-.3-.6-.7-.8-1.3-.2-.6-.3-1.1-.2-1.5,0-.4,.3-.8,.6-1.2,.3-.3,.8-.6,1.3-.8,.2,0,.4-.1,.5-.2s.4,0,.5,0l.3,.9c-.2,0-.3,0-.5,0-.2,0-.3,0-.5,.1-.4,.1-.7,.3-.9,.5-.2,.2-.3,.4-.4,.7s0,.6,.2,1,.3,.7,.5,.8c.2,.2,.4,.3,.7,.3s.6,0,.9-.1c.1,0,.3,0,.4-.2,.1,0,.2-.1,.3-.2l-.3,.6-.7-1.9,.9-.4,.9,2.3c-.2,.1-.4,.2-.6,.3-.2,0-.4,.2-.6,.2Z"/>
          <path class="uuid-7b858f1d-78b1-4b07-9979-2c3f2dc46a78" d="M53.3,15.9l-1.3-5,1-.3,1.3,5-1,.3Z"/>
          <path class="uuid-7b858f1d-78b1-4b07-9979-2c3f2dc46a78" d="M56.8,15.1l-.7-4.2-1.5,.3-.2-.9,4.1-.7,.2,.9-1.5,.3,.7,4.2-1.1,.2Z"/>
          <path class="uuid-7b858f1d-78b1-4b07-9979-2c3f2dc46a78" d="M59.4,14.7l1.3-5.3h1.6l1.9,5h-1.1l-1.7-4.6h.1l-1.1,4.8h-1.1Zm1-1.4l.2-.9h2.1l.3,.8-2.5,.2Z"/>
          <path class="uuid-7b858f1d-78b1-4b07-9979-2c3f2dc46a78" d="M65.1,14.4l.3-5.2h1.1l-.2,4.3h2.3v1.1l-3.4-.2Z"/>
        </g>
        <g>
          <path class="uuid-7b858f1d-78b1-4b07-9979-2c3f2dc46a78" d="M72.4,36.9c-.9-.4-1.5-.9-2-1.5-.4-.6-.7-1.2-.8-1.9,0-.7,0-1.5,.2-2.3,.2-.8,.6-1.7,1.1-2.7l.9-1.9,3,1.5-1.1,2.1c-.6,1.1-.9,2-.9,2.6,0,.6,.2,1,.8,1.3,.4,.2,.7,.2,1,.2,.3,0,.6-.3,.8-.7,.3-.4,.6-.9,.9-1.5,.4-.8,.6-1.6,.6-2.4,0-.8-.2-1.7-.5-2.8l-.8-2.4c-.2-.7-.4-1.3-.5-2,0-.7,0-1.4,0-2.1,.1-.7,.4-1.5,.7-2.2,.6-1.1,1.2-2,1.8-2.6,.7-.6,1.4-1,2.2-1.1,.8,0,1.8,.2,3,.7,.8,.4,1.5,.9,1.9,1.4,.4,.5,.7,1.1,.7,1.8,0,.7,0,1.4-.3,2.1-.2,.8-.6,1.6-1,2.5l-.7,1.3-3-1.5,.8-1.5c.3-.6,.6-1.2,.7-1.6,.1-.5,.2-.8,0-1.1,0-.3-.3-.5-.6-.7-.3-.2-.6-.2-.9-.2-.3,0-.5,.2-.8,.5-.2,.3-.5,.6-.7,1.1-.2,.4-.4,.8-.4,1.2,0,.4,0,.8,0,1.2,0,.4,.2,.9,.4,1.4l.8,2.7c.4,1.3,.6,2.6,.5,3.8,0,1.2-.3,2.4-.9,3.6-.6,1.3-1.3,2.3-2,3-.7,.7-1.5,1.1-2.3,1.3-.9,.1-1.8,0-2.9-.6Z"/>
          <path class="uuid-7b858f1d-78b1-4b07-9979-2c3f2dc46a78" d="M79.7,43.2c-.7-1-1.1-1.9-1.1-2.9,0-.9,.3-1.8,.9-2.7,.6-.9,1.5-1.8,2.7-2.7l8.7-6.3c1.1-.8,2.1-1.3,3.1-1.6,1-.3,1.9-.3,2.8,0,.9,.3,1.7,1,2.4,2,.6,.8,.9,1.5,1.1,2.2,.1,.7,.1,1.4-.1,2-.2,.7-.6,1.3-1.1,1.9-.5,.6-1.2,1.2-2,1.8l-8.7,6.3c-1.2,.9-2.3,1.5-3.4,1.8-1,.3-2,.3-2.8,0-.9-.3-1.7-1-2.4-1.9Zm2.5-1.8c.3,.4,.6,.6,.9,.6,.3,0,.8,0,1.3-.4,.5-.3,1.1-.6,1.8-1.1l8.9-6.5c.8-.6,1.4-1.1,1.8-1.6,.3-.5,.3-1,0-1.5-.4-.5-.9-.7-1.4-.6-.6,.1-1.3,.5-2.1,1.1l-8.9,6.5c-.7,.5-1.2,.9-1.6,1.3-.4,.4-.6,.7-.7,1.1,0,.3,0,.7,.3,1.1Z"/>
          <path class="uuid-7b858f1d-78b1-4b07-9979-2c3f2dc46a78" d="M83.8,47.2h23.6v4.3l-17.2,3.4,17.2,3v4.5h-23.6v-3.1h16.8l-16.8-3v-2.9l16.7-3.4-8.1,.2h-8.8v-3.1Z"/>
          <path class="uuid-7b858f1d-78b1-4b07-9979-2c3f2dc46a78" d="M79.8,66.9c.7-1,1.5-1.7,2.4-2,.9-.3,1.8-.4,2.9,0,1,.3,2.2,.9,3.4,1.7l8.8,6.2c1.1,.8,2,1.6,2.5,2.4,.6,.8,.9,1.7,.8,2.7,0,.9-.4,1.9-1.1,2.9-.5,.8-1.1,1.3-1.7,1.7-.6,.4-1.3,.5-2,.6s-1.4-.1-2.2-.5c-.8-.3-1.6-.8-2.4-1.3l-8.8-6.2c-1.2-.9-2.2-1.7-2.8-2.6-.6-.9-.9-1.8-.9-2.7,0-.9,.4-1.9,1.1-2.9Zm2.5,1.8c-.3,.4-.3,.7-.3,1.1,0,.3,.3,.7,.7,1.1,.4,.4,.9,.8,1.6,1.3l9,6.3c.8,.6,1.5,1,2.1,1.1,.6,.2,1,0,1.4-.5,.4-.5,.4-1,.1-1.6-.3-.5-.9-1.1-1.8-1.7l-9-6.3c-.7-.5-1.3-.9-1.8-1.1-.5-.3-.9-.4-1.3-.3-.3,0-.7,.3-.9,.6Z"/>
          <path class="uuid-7b858f1d-78b1-4b07-9979-2c3f2dc46a78" d="M72.3,73.4c.9-.5,1.7-.7,2.4-.7,.7,0,1.4,.1,2,.5,.6,.4,1.2,.9,1.7,1.6,.5,.7,1.1,1.5,1.6,2.5l1,1.9-3,1.6-1.1-2.1c-.6-1.1-1.1-1.9-1.5-2.3-.4-.4-.9-.4-1.5-.2-.4,.2-.6,.4-.7,.7-.1,.3,0,.6,0,1.1,.1,.4,.4,1,.7,1.6,.4,.8,.9,1.4,1.6,1.9,.7,.5,1.5,.9,2.5,1.3l2.4,.8c.7,.2,1.3,.5,1.9,.8,.6,.3,1.2,.7,1.7,1.2,.5,.5,1,1.1,1.4,1.9,.6,1.1,.9,2.1,1,3,.1,.9,0,1.7-.5,2.4-.4,.7-1.2,1.4-2.3,2-.8,.4-1.6,.7-2.3,.7-.7,0-1.3-.1-1.9-.5-.6-.3-1.1-.8-1.6-1.5-.5-.6-1-1.4-1.4-2.3l-.7-1.3,2.9-1.5,.8,1.5c.3,.6,.6,1.1,.9,1.5,.3,.4,.6,.6,.9,.8s.6,0,1,0c.3-.2,.6-.4,.7-.6,.1-.3,.2-.6,0-.9,0-.4-.2-.8-.5-1.3-.2-.4-.5-.8-.8-1-.3-.3-.6-.5-1-.7-.4-.2-.8-.4-1.4-.5l-2.7-1c-1.3-.5-2.4-1.1-3.4-1.8-1-.7-1.7-1.7-2.3-2.9-.6-1.3-1.1-2.4-1.2-3.4-.2-1,0-1.9,.4-2.6,.4-.8,1.2-1.4,2.3-2Z"/>
        </g>
      </g>
      <g>
        <path class="uuid-7b858f1d-78b1-4b07-9979-2c3f2dc46a78" d="M37.9,67.1c-1,0-1.8-.2-2.5-.5-.7-.3-1.2-.8-1.6-1.4-.4-.6-.6-1.3-.8-2.2s-.2-1.8-.2-2.9v-2.1h3.4v2.4c0,1.3,.1,2.2,.3,2.7,.2,.6,.6,.8,1.3,.8s.8-.1,1-.3c.2-.2,.4-.5,.4-1,0-.4,.1-1,.1-1.7s-.2-1.7-.6-2.4c-.4-.7-.9-1.5-1.7-2.3l-1.7-1.8c-.5-.5-.9-1-1.3-1.6-.4-.6-.7-1.2-.9-1.9-.2-.7-.3-1.5-.3-2.3,0-1.2,.2-2.3,.5-3.1,.3-.9,.8-1.5,1.5-1.9,.7-.4,1.7-.7,3-.7s1.7,.1,2.3,.4c.6,.3,1.1,.7,1.4,1.3,.3,.6,.6,1.2,.7,2,.1,.8,.2,1.7,.2,2.7v1.5h-3.3v-1.7c0-.7,0-1.3-.1-1.8,0-.5-.2-.8-.4-1.1-.2-.2-.5-.4-.9-.4s-.7,0-.9,.2c-.2,.2-.4,.4-.5,.8-.1,.3-.2,.8-.2,1.3s0,.9,.2,1.3c.1,.4,.3,.7,.6,1,.3,.3,.6,.7,1,1.1l1.9,2.1c.9,1,1.7,2,2.2,3.1s.8,2.3,.8,3.6-.2,2.6-.5,3.6c-.3,1-.8,1.7-1.5,2.2-.7,.5-1.7,.7-2.9,.7Z"/>
        <path class="uuid-7b858f1d-78b1-4b07-9979-2c3f2dc46a78" d="M45.4,66.8v-23.6h3.6v23.6h-3.6Z"/>
      </g>
      <g>
        <polygon class="uuid-7b858f1d-78b1-4b07-9979-2c3f2dc46a78" points="69 46.3 67.4 46.3 66.8 46.3 65.9 51.6 64.9 46.5 63.4 46.5 62.4 51.7 61.3 46.3 60.9 46.3 59.3 46.3 59.2 46.3 59.2 64.3 59.3 64.3 60.9 64.3 61.4 64.3 62.4 59 63.4 64.2 64.9 64.2 65.9 58.9 66.9 64.3 67.3 64.3 69 64.3 69 64.3 69 46.3 69 46.3"/>
        <polygon class="uuid-7b858f1d-78b1-4b07-9979-2c3f2dc46a78" points="55.1 50.5 55.1 52 55.1 52.6 60.5 53.6 55.3 54.6 55.3 56.1 60.5 57.1 55.1 58.1 55.1 58.5 55.1 60.2 55.1 60.2 73.1 60.2 73.1 60.2 73.1 58.6 73.1 58 67.8 57.1 73 56 73 54.6 67.7 53.6 73.1 52.5 73.1 52.1 73.1 50.5 73.1 50.4 55.1 50.4 55.1 50.5"/>
        <rect class="uuid-80cd297d-f113-4a6b-b1b8-42668ae95d44" x="62.9" y="54" width="2.6" height="2.6"/>
      </g>
    </g>
  </g>
</svg>