<?xml version="1.0" encoding="UTF-8"?>
<svg id="uuid-085cdaa5-9dd0-4f2f-872a-bd1ee7c7f9de" data-name="Layer 2" xmlns="http://www.w3.org/2000/svg" width="147.7" height="153.3" viewBox="0 0 147.7 153.3">
  <defs>
    <style>
      .uuid-0e900c33-1c9d-414b-b88b-4d4bff65f024 {
        fill: #fff;
      }

      .uuid-d03e9d24-b142-4680-92be-1747cc03f895 {
        fill: #f9e925;
      }
    </style>
  </defs>
  <g id="uuid-6d0fb513-cae0-449c-bbcf-203bf06f0e3a" data-name="menu">
    <g>
      <g>
        <g>
          <path class="uuid-0e900c33-1c9d-414b-b88b-4d4bff65f024" d="M91.7,126.5l-1.7,7h-2.1l-2.5-6.6h1.4l2.2,6h-.1l1.4-6.3h1.4Zm-1.4,1.8l-.2,1.2-2.8,.2-.4-1.2,3.4-.2Z"/>
          <path class="uuid-0e900c33-1c9d-414b-b88b-4d4bff65f024" d="M80.8,126.5c.8,0,1.5,.2,2,.5,.5,.3,.9,.7,1.2,1.2,.2,.5,.3,1.2,.3,2,0,.8-.2,1.4-.6,1.9s-.8,.9-1.3,1.1c-.6,.2-1.3,.3-2,.3-.3,0-.5,0-.8,0-.2,0-.5-.1-.7-.2v-1.2c.3,0,.5,.1,.8,.2,.2,0,.4,0,.7,0,.5,0,1,0,1.3-.1,.4-.1,.6-.4,.8-.7s.3-.8,.3-1.3c0-.5,0-1-.2-1.3s-.4-.6-.7-.8c-.3-.2-.7-.3-1.2-.3-.2,0-.4,0-.5,0-.2,0-.3,0-.5,0l.7-.5-.2,2.7h-1.3l.2-3.4c.3,0,.6,0,.8,0,.3,0,.5,0,.8,0Z"/>
          <path class="uuid-0e900c33-1c9d-414b-b88b-4d4bff65f024" d="M77.4,126.2l-1.3,6.8-4.5-.8,.2-1.2,3.1,.6,.8-4.4-3.2-.6,.2-1.2,4.6,.9Zm-1.4,2.7l-.2,1.2-3.2-.6,.2-1.2,3.2,.6Z"/>
          <path class="uuid-0e900c33-1c9d-414b-b88b-4d4bff65f024" d="M71.5,125l-2.1,6.6-1.4-.4-1.4-5.7h.2l-1.5,4.9-1.3-.4,2.1-6.6,1.4,.4,1.4,5.7h-.2l1.5-4.9,1.3,.4Z"/>
          <path class="uuid-0e900c33-1c9d-414b-b88b-4d4bff65f024" d="M61.6,121.2c.5,.2,.9,.5,1.2,.8,.3,.3,.6,.6,.7,1,.1,.4,.2,.8,.1,1.3,0,.5-.2,1-.5,1.5-.3,.7-.7,1.3-1.2,1.6-.5,.4-1,.6-1.6,.6-.6,0-1.2-.1-1.9-.4-.2-.1-.4-.2-.6-.3-.2-.1-.4-.3-.6-.4l.5-1.1c.2,.1,.3,.3,.5,.4,.2,.1,.4,.2,.6,.3,.4,.2,.8,.3,1.2,.3,.3,0,.7-.1,.9-.4,.3-.2,.5-.6,.8-1.1,.2-.5,.4-.9,.4-1.3,0-.4-.1-.7-.3-.9s-.5-.5-.9-.7c-.2,0-.4-.2-.6-.2-.2,0-.4-.1-.7-.1l.5-1.1c.2,0,.5,0,.7,.1,.2,0,.5,.2,.7,.3Z"/>
          <path class="uuid-0e900c33-1c9d-414b-b88b-4d4bff65f024" d="M59,119.9l-3.4,6-1.2-.7,3.4-6,1.2,.7Z"/>
          <path class="uuid-0e900c33-1c9d-414b-b88b-4d4bff65f024" d="M56.6,118.6l-5.7,4.4-1.7-1.2,2.3-6.8,1.2,.8-2.1,6.1h-.1l5.1-4.1,1.1,.8Zm-2.3,.6l-1,.8-2.3-1.6,.5-1.2,2.8,2Z"/>
          <path class="uuid-0e900c33-1c9d-414b-b88b-4d4bff65f024" d="M47.2,110.9c.1,.1,.3,.3,.4,.4,.1,.2,.3,.3,.4,.5,.1,.2,.3,.3,.4,.5l-4.8,4.6c-.2-.1-.4-.2-.5-.4-.2-.1-.4-.3-.5-.5-.2-.2-.4-.3-.5-.5-.8-.9-1.2-1.7-1.2-2.5,0-.8,.4-1.7,1.3-2.5,.6-.6,1.2-.9,1.7-1.1,.6-.2,1.1-.1,1.7,.1,.6,.2,1.2,.7,1.8,1.3Zm-1.1,.6c-.3-.3-.6-.5-.9-.7-.3-.1-.6-.1-1,0-.3,.1-.7,.4-1.1,.8-.4,.4-.7,.7-.8,1.1-.1,.3-.2,.7,0,1,0,.3,.3,.6,.6,1,0,0,.2,.2,.3,.3,.1,0,.2,.2,.3,.2l3.2-3.1c0,0-.2-.2-.2-.3,0,0-.2-.2-.3-.3Z"/>
          <path class="uuid-0e900c33-1c9d-414b-b88b-4d4bff65f024" d="M43.5,106.9l-5.5,4.1-2.7-3.7,1-.7,1.9,2.5,3.6-2.7-1.9-2.6,1-.7,2.8,3.7Zm-2.9,1.1l-1,.7-2-2.6,1-.7,2,2.6Z"/>
          <path class="uuid-0e900c33-1c9d-414b-b88b-4d4bff65f024" d="M37,96.6c.2,.5,.4,.9,.5,1.4,0,.4,0,.9,0,1.2-.1,.4-.3,.8-.7,1.1-.3,.3-.8,.6-1.3,.9-.7,.4-1.3,.5-1.9,.5-.6,0-1.1-.2-1.6-.5-.5-.3-.9-.8-1.2-1.5-.1-.2-.2-.4-.3-.7,0-.2-.2-.4-.2-.7l1.1-.6c0,.2,.1,.4,.2,.6s.2,.4,.3,.6c.2,.4,.5,.7,.7,.9,.3,.2,.6,.3,1,.3s.8-.2,1.3-.4c.5-.3,.9-.5,1.1-.8,.2-.3,.3-.6,.3-.9,0-.3-.1-.7-.3-1.1-.1-.2-.2-.4-.4-.6-.1-.2-.3-.4-.5-.5l1.1-.6c.2,.2,.3,.3,.5,.5,.2,.2,.3,.4,.4,.7Z"/>
          <path class="uuid-0e900c33-1c9d-414b-b88b-4d4bff65f024" d="M34.8,91.5c.2,.6,.3,1.1,.2,1.7,0,.5-.3,1-.7,1.4-.4,.4-1,.8-1.7,1-.8,.3-1.4,.4-2,.3-.6,0-1.1-.3-1.5-.6-.4-.3-.7-.8-.9-1.4-.2-.6-.3-1.1-.2-1.7,0-.5,.3-1,.7-1.4,.4-.4,1-.8,1.7-1,.7-.3,1.4-.4,2-.3,.6,0,1.1,.3,1.5,.6,.4,.3,.7,.8,.9,1.4Zm-1.1,.4c-.1-.3-.3-.6-.5-.7-.2-.2-.5-.3-.9-.3-.4,0-.8,0-1.3,.3-.5,.2-.9,.4-1.2,.7-.3,.2-.4,.5-.5,.8,0,.3,0,.6,0,.9,.1,.3,.3,.6,.5,.7s.5,.3,.9,.3c.4,0,.8,0,1.3-.3,.5-.2,.9-.4,1.2-.7,.3-.2,.4-.5,.5-.8,0-.3,0-.6,0-.9Z"/>
          <path class="uuid-0e900c33-1c9d-414b-b88b-4d4bff65f024" d="M33.2,87.1l-6.8,1.4-.3-1.7,4.1-2.8v.2l-4.8-.9-.3-1.7,6.8-1.4,.3,1.3-5.5,1.1v-.3l4.8,1,.2,1.2-4.1,2.8v-.3l5.4-1.1,.3,1.3Z"/>
          <path class="uuid-0e900c33-1c9d-414b-b88b-4d4bff65f024" d="M31.6,75.7c0,.6,0,1.2-.2,1.6-.2,.4-.5,.7-.9,1-.4,.2-1,.3-1.6,.4l-4,.2v-1.4l4.1-.2c.5,0,.9-.2,1.2-.4,.2-.2,.3-.6,.3-1,0-.4-.2-.8-.4-1s-.7-.3-1.2-.3l-4.2,.2v-1.4l4-.2c.7,0,1.2,0,1.7,.2,.4,.2,.8,.5,1,.8,.2,.4,.4,.9,.4,1.5Z"/>
          <path class="uuid-0e900c33-1c9d-414b-b88b-4d4bff65f024" d="M31.4,71.3l-6.9-.6v-1.4l5.4-2.7v.2l-5-.4v-1.3l7,.6v1.4l-5.4,2.7v-.2l5,.4v1.3Z"/>
          <path class="uuid-0e900c33-1c9d-414b-b88b-4d4bff65f024" d="M32.2,63.9l-6.8-1.3,.3-1.4,6.8,1.3-.3,1.4Z"/>
          <path class="uuid-0e900c33-1c9d-414b-b88b-4d4bff65f024" d="M33.8,57.6c-.1,.5-.3,1-.6,1.3s-.5,.7-.9,.9c-.4,.2-.8,.3-1.2,.4-.5,0-1,0-1.6-.2-.8-.2-1.4-.5-1.8-.9-.4-.4-.7-.9-.8-1.5-.1-.6,0-1.2,.1-1.9,0-.2,.1-.5,.2-.7,0-.2,.2-.4,.3-.6l1.2,.3c-.1,.2-.2,.4-.3,.6,0,.2-.2,.4-.2,.6-.1,.5-.2,.9,0,1.2,0,.3,.2,.6,.5,.9,.3,.2,.7,.4,1.2,.6,.5,.1,1,.2,1.4,.1,.4,0,.7-.2,.9-.5,.2-.3,.4-.6,.5-1,0-.2,.1-.4,.1-.7,0-.2,0-.5,0-.7l1.2,.3c0,.2,0,.5,0,.7,0,.3,0,.5-.1,.8Z"/>
          <path class="uuid-0e900c33-1c9d-414b-b88b-4d4bff65f024" d="M34.3,55.4l-5.6-4.6,.8-1.9,7.2,.7-.5,1.3-6.5-.7h0l5.1,3.9-.5,1.3Zm-1.1-2.1l-1-.7,1.1-2.6,1.2,.2-1.3,3.1Z"/>
          <path class="uuid-0e900c33-1c9d-414b-b88b-4d4bff65f024" d="M38.9,45.8c-.3,.5-.6,.9-.9,1.2-.3,.3-.7,.5-1.1,.6-.4,.1-.8,.1-1.3,0-.5,0-1-.3-1.5-.6-.7-.4-1.2-.8-1.5-1.3-.3-.5-.5-1-.5-1.6s.2-1.2,.6-1.8c.1-.2,.3-.4,.4-.6,.1-.2,.3-.4,.4-.5l1.1,.6c-.1,.2-.3,.3-.4,.5-.1,.2-.2,.4-.4,.6-.2,.4-.4,.8-.4,1.1,0,.3,0,.7,.3,1,.2,.3,.6,.6,1,.8,.5,.3,.9,.4,1.3,.5,.4,0,.7,0,1-.2,.3-.2,.5-.5,.7-.9,.1-.2,.2-.4,.3-.6,0-.2,.1-.4,.2-.7l1.1,.6c0,.2-.1,.4-.2,.7,0,.2-.2,.5-.3,.7Z"/>
          <path class="uuid-0e900c33-1c9d-414b-b88b-4d4bff65f024" d="M40.3,43.3l-5.7-3.9,.8-1.2,5.7,3.9-.8,1.2Z"/>
          <path class="uuid-0e900c33-1c9d-414b-b88b-4d4bff65f024" d="M37.9,34.2l-.6-1.5,1-1.1,.4,1.7-.8,1Zm6.2,4.3c-.4,.5-.8,.8-1.3,1-.5,.2-1,.2-1.6,0s-1.2-.5-1.8-1c-.6-.5-1-1-1.3-1.6-.2-.5-.3-1.1-.2-1.6,.1-.5,.4-1,.8-1.5,.4-.5,.8-.8,1.3-1,.5-.2,1-.2,1.6,0,.6,.1,1.2,.5,1.8,1,.6,.5,1,1,1.3,1.6,.2,.5,.3,1.1,.2,1.6-.1,.5-.3,1-.7,1.5Zm-.9-.8c.2-.3,.3-.5,.4-.8,0-.3,0-.6-.2-.9-.2-.3-.5-.6-.9-1-.4-.4-.8-.6-1.2-.7-.3-.1-.7-.1-.9,0-.3,0-.5,.3-.7,.5-.2,.3-.3,.5-.4,.8,0,.3,0,.6,.2,.9,.2,.3,.5,.6,.9,1,.4,.4,.8,.6,1.2,.7,.3,.1,.7,.1,.9,0,.3,0,.5-.3,.7-.5Z"/>
          <path class="uuid-0e900c33-1c9d-414b-b88b-4d4bff65f024" d="M47,35l-4.6-5.1,1.1-1,5.7,1.6-.2,.2-3.4-3.7,1-.9,4.6,5.1-1.1,1-5.7-1.6,.2-.2,3.4,3.7-1,.9Z"/>
          <path class="uuid-0e900c33-1c9d-414b-b88b-4d4bff65f024" d="M56.5,27.5c-.2,0-.3,.2-.5,.3-.2,0-.4,.2-.5,.3-.2,0-.4,.2-.6,.3l-3.5-5.7c.2-.1,.3-.3,.5-.4,.2-.1,.4-.3,.6-.4,.2-.1,.4-.3,.6-.4,1-.6,1.9-.8,2.7-.7,.8,.2,1.5,.8,2.2,1.8,.4,.7,.6,1.4,.7,1.9,0,.6-.2,1.1-.5,1.6-.4,.5-.9,1-1.7,1.4Zm-.3-1.2c.4-.2,.7-.5,.9-.8,.2-.3,.2-.6,.2-1,0-.4-.2-.8-.5-1.3-.3-.5-.6-.8-.9-1-.3-.2-.6-.3-1-.3-.3,0-.7,.2-1.1,.4,0,0-.2,.1-.3,.2-.1,0-.2,.2-.3,.2l2.3,3.8c.1,0,.2-.1,.3-.2,.1,0,.2-.1,.3-.2Z"/>
          <path class="uuid-0e900c33-1c9d-414b-b88b-4d4bff65f024" d="M61.2,24.8l-3-6.2,1.3-.6,3,6.2-1.3,.6Z"/>
          <path class="uuid-0e900c33-1c9d-414b-b88b-4d4bff65f024" d="M67.5,22.2c-.8,.3-1.5,.4-2.1,.4-.6,0-1.1-.3-1.6-.6-.4-.4-.8-1-1.1-1.7-.3-.7-.4-1.4-.3-2,0-.6,.3-1.1,.8-1.5,.4-.4,1-.8,1.8-1.1,.2,0,.5-.2,.7-.2,.2,0,.5-.1,.7-.1l.4,1.2c-.2,0-.5,0-.7,.1-.2,0-.4,.1-.6,.2-.5,.2-.9,.4-1.2,.7s-.4,.6-.5,1c0,.4,0,.8,.2,1.4,.2,.5,.4,.9,.7,1.1,.3,.3,.6,.4,.9,.4,.4,0,.7,0,1.2-.2,.2,0,.3-.1,.5-.2,.2,0,.3-.1,.4-.2l-.4,.7-.9-2.5,1.3-.5,1.1,3.1c-.2,.1-.5,.3-.7,.4-.2,.1-.5,.2-.7,.3Z"/>
          <path class="uuid-0e900c33-1c9d-414b-b88b-4d4bff65f024" d="M70.7,21.1l-1.8-6.7,1.4-.4,1.8,6.7-1.4,.4Z"/>
          <path class="uuid-0e900c33-1c9d-414b-b88b-4d4bff65f024" d="M75.4,20.1l-1-5.6-2,.4-.2-1.2,5.5-.9,.2,1.2-2,.4,1,5.6-1.4,.2Z"/>
          <path class="uuid-0e900c33-1c9d-414b-b88b-4d4bff65f024" d="M78.8,19.4l1.7-7h2.1l2.5,6.6h-1.4l-2.2-6h.1l-1.4,6.3h-1.4Zm1.4-1.8l.2-1.2,2.8-.2,.4,1.2-3.4,.2Z"/>
          <path class="uuid-0e900c33-1c9d-414b-b88b-4d4bff65f024" d="M86.3,19.1l.4-6.9h1.4l-.3,5.7,3,.2v1.3l-4.5-.3Z"/>
        </g>
        <g>
          <path class="uuid-0e900c33-1c9d-414b-b88b-4d4bff65f024" d="M96,49c-1.2-.6-2-1.2-2.6-2-.6-.8-.9-1.6-1-2.5,0-.9,0-1.9,.3-3.1,.3-1.1,.8-2.3,1.4-3.6l1.2-2.5,4,2-1.4,2.8c-.8,1.5-1.2,2.6-1.2,3.4,0,.8,.3,1.4,1,1.7,.5,.3,.9,.3,1.3,.2,.4-.1,.7-.4,1.1-.9,.4-.5,.7-1.1,1.2-2,.5-1,.8-2.1,.8-3.2,0-1.1-.2-2.3-.6-3.7l-1-3.2c-.3-.9-.5-1.8-.6-2.7-.1-.9-.1-1.8,0-2.8,.1-1,.5-1.9,1-3,.7-1.5,1.5-2.6,2.4-3.5,.9-.8,1.9-1.3,3-1.4,1.1,0,2.4,.2,3.9,1,1.1,.6,2,1.2,2.5,1.9,.6,.7,.9,1.5,.9,2.4,0,.9,0,1.8-.3,2.8-.3,1-.8,2.2-1.4,3.4l-.9,1.7-3.9-2,1-2c.4-.8,.7-1.6,.9-2.2,.2-.6,.2-1.1,.1-1.5-.1-.4-.4-.7-.9-1-.4-.2-.9-.3-1.2-.2-.4,0-.7,.3-1,.6-.3,.3-.6,.8-1,1.5-.3,.6-.5,1.1-.5,1.6,0,.5,0,1,0,1.6,.1,.5,.3,1.2,.5,1.9l1.1,3.6c.5,1.7,.7,3.4,.7,5,0,1.6-.4,3.2-1.2,4.7-.8,1.7-1.7,3-2.6,3.9-.9,1-2,1.5-3.1,1.7-1.1,.2-2.4-.1-3.9-.9Z"/>
          <path class="uuid-0e900c33-1c9d-414b-b88b-4d4bff65f024" d="M105.7,57.2c-1-1.3-1.5-2.6-1.5-3.8,0-1.2,.3-2.4,1.1-3.6,.8-1.2,2-2.4,3.6-3.5l11.6-8.4c1.5-1.1,2.8-1.8,4.1-2.1,1.3-.4,2.5-.3,3.7,0,1.2,.4,2.2,1.3,3.2,2.7,.7,1,1.2,2,1.4,2.9,.2,.9,.1,1.8-.1,2.7-.3,.9-.8,1.7-1.5,2.5-.7,.8-1.6,1.6-2.7,2.4l-11.6,8.4c-1.6,1.2-3.1,2-4.5,2.4-1.4,.4-2.6,.4-3.8,0-1.1-.4-2.2-1.3-3.1-2.6Zm3.3-2.4c.3,.5,.8,.7,1.2,.8,.5,0,1-.1,1.7-.5,.6-.3,1.4-.8,2.3-1.5l11.8-8.5c1.1-.8,1.9-1.5,2.3-2.2,.4-.6,.4-1.3,0-2-.5-.7-1.1-1-1.9-.8-.8,.2-1.7,.7-2.8,1.5l-11.8,8.6c-.9,.7-1.6,1.3-2.2,1.8-.5,.5-.8,1-.9,1.4,0,.5,0,.9,.4,1.4Z"/>
          <path class="uuid-0e900c33-1c9d-414b-b88b-4d4bff65f024" d="M111.1,62.6l31.2-.2v5.9l-22.8,4.6,22.8,4v5.9l-31.2,.2v-4.2h22.3l-22.2-4v-3.8l22.1-4.5-10.7,.2h-11.6v-4.1Z"/>
          <path class="uuid-0e900c33-1c9d-414b-b88b-4d4bff65f024" d="M105.8,88.7c.9-1.3,2-2.2,3.1-2.6,1.2-.4,2.4-.5,3.8,0,1.4,.4,2.9,1.1,4.5,2.3l11.7,8.2c1.5,1,2.6,2.1,3.4,3.2,.8,1.1,1.1,2.3,1.1,3.5,0,1.2-.5,2.5-1.5,3.9-.7,1-1.5,1.8-2.3,2.3-.8,.5-1.7,.7-2.6,.7s-1.9-.2-2.9-.6c-1-.4-2.1-1-3.2-1.8l-11.7-8.2c-1.6-1.1-2.9-2.3-3.7-3.5-.8-1.2-1.2-2.3-1.2-3.6,0-1.2,.5-2.5,1.4-3.8Zm3.4,2.4c-.3,.5-.5,.9-.3,1.4,.1,.4,.4,.9,1,1.4,.5,.5,1.3,1.1,2.2,1.7l11.9,8.4c1.1,.8,2,1.3,2.8,1.5,.7,.2,1.4,0,1.9-.7,.5-.7,.5-1.4,.1-2.1-.4-.7-1.2-1.4-2.3-2.2l-11.9-8.4c-.9-.7-1.7-1.2-2.4-1.5-.7-.3-1.2-.5-1.7-.4-.5,0-.9,.3-1.2,.8Z"/>
          <path class="uuid-0e900c33-1c9d-414b-b88b-4d4bff65f024" d="M95.9,97.2c1.2-.6,2.2-.9,3.2-.9,1,0,1.8,.2,2.7,.6,.8,.5,1.6,1.2,2.3,2.1,.7,.9,1.4,2,2.1,3.3l1.3,2.5-4,2.1-1.4-2.8c-.8-1.5-1.4-2.5-2-3-.6-.5-1.3-.6-2-.2-.5,.3-.8,.6-1,.9-.1,.4-.1,.8,0,1.4,.2,.6,.5,1.3,.9,2.1,.5,1,1.2,1.9,2.1,2.5,.9,.6,2,1.2,3.4,1.7l3.1,1.1c.9,.3,1.7,.7,2.5,1.1,.8,.4,1.5,1,2.2,1.7,.7,.7,1.3,1.5,1.8,2.5,.8,1.5,1.2,2.8,1.4,4,.2,1.2,0,2.3-.6,3.2-.6,1-1.6,1.8-3.1,2.6-1.1,.6-2.1,.9-3,.9-.9,0-1.7-.2-2.5-.6-.7-.4-1.4-1.1-2.1-2-.7-.9-1.3-1.9-1.9-3.1l-.9-1.7,3.9-2,1,2c.4,.8,.8,1.5,1.2,2,.4,.5,.8,.8,1.1,1s.8,.1,1.3-.1c.4-.2,.7-.5,.9-.8,.2-.3,.2-.7,.1-1.2,0-.5-.3-1-.6-1.7-.3-.6-.6-1-1-1.4-.4-.3-.8-.6-1.3-.9-.5-.2-1.1-.5-1.8-.7l-3.6-1.3c-1.7-.6-3.2-1.4-4.4-2.4-1.3-1-2.3-2.2-3.1-3.8-.9-1.7-1.4-3.1-1.6-4.5-.2-1.3,0-2.5,.5-3.5,.5-1,1.5-1.9,3-2.6Z"/>
        </g>
      </g>
      <g>
        <path class="uuid-d03e9d24-b142-4680-92be-1747cc03f895" d="M50.3,88.9c-1.3,0-2.4-.2-3.3-.6-.9-.4-1.6-1-2.1-1.8-.5-.8-.9-1.7-1.1-2.9s-.3-2.4-.3-3.9v-2.8h4.5v3.1c0,1.7,.1,2.9,.4,3.6,.3,.7,.8,1.1,1.7,1.1s1-.1,1.3-.4c.3-.3,.5-.7,.6-1.3,.1-.6,.2-1.4,.2-2.3s-.2-2.2-.7-3.2c-.5-1-1.2-2-2.2-3l-2.3-2.4c-.6-.7-1.2-1.4-1.7-2.1-.5-.7-.9-1.6-1.2-2.5-.3-.9-.5-1.9-.5-3.1,0-1.6,.2-3,.6-4.2,.4-1.1,1.1-2,2-2.6,1-.6,2.3-.9,3.9-.9s2.3,.2,3.1,.6c.8,.4,1.4,.9,1.9,1.7,.5,.7,.8,1.6,1,2.7,.2,1.1,.3,2.3,.3,3.6v1.9h-4.4v-2.2c0-.9,0-1.7-.2-2.4-.1-.6-.3-1.1-.6-1.4-.3-.3-.7-.5-1.2-.5s-.9,.1-1.2,.3c-.3,.2-.5,.6-.7,1-.1,.5-.2,1-.2,1.8s0,1.2,.2,1.7c.2,.5,.4,.9,.8,1.4,.3,.4,.8,.9,1.3,1.5l2.6,2.8c1.2,1.3,2.2,2.7,2.9,4.1s1,3,1,4.8-.2,3.4-.6,4.7c-.4,1.3-1.1,2.2-2,2.9-.9,.7-2.2,1-3.9,1Z"/>
        <path class="uuid-d03e9d24-b142-4680-92be-1747cc03f895" d="M60.2,88.6v-31.2h4.8v31.2h-4.8Z"/>
      </g>
      <g>
        <path class="uuid-d03e9d24-b142-4680-92be-1747cc03f895" d="M73.1,66.8h0v2.9l7.1,1.3-6.8,1.3v2l6.9,1.3-7.2,1.4v2.7h23.9v-2.8l-7.1-1.3,6.8-1.3v-2l-6.9-1.3,7.2-1.4v-2.7h-23.9Zm13.6,8.1h-3.4v-3.4h3.4v3.4Z"/>
        <path class="uuid-d03e9d24-b142-4680-92be-1747cc03f895" d="M91.4,61.4h-2.8l-1.3,7.1-1.3-6.8h-2l-1.3,6.9-1.4-7.2h-2.8v23.9h2.9l1.3-7.1,1.3,6.8h2l1.3-6.9,1.4,7.2h2.8v-23.9h0Zm-4.4,13.2h-3.4v-3.4h3.4v3.4Z"/>
      </g>
    </g>
  </g>
</svg>